<?xml version="1.0" encoding="UTF-8"?>
<svg width="150px" height="185px" viewBox="0 0 150 185" version="1.1" xmlns="http://www.w3.org/2000/svg" xmlns:xlink="http://www.w3.org/1999/xlink">
    <!-- Generator: sketchtool 63.1 (101010) - https://sketch.com -->
    <title>0BA50CF5-E014-4EAE-AABD-C6D99CF9A113</title>
    <desc>Created with sketchtool.</desc>
    <g id="Page-1" stroke="none" stroke-width="1" fill="none" fill-rule="evenodd">
        <g id="Login" transform="translate(-112.000000, -106.000000)" fill="#FFFFFF" fill-rule="nonzero">
            <g id="suti-logo-02-1" transform="translate(112.000000, 106.000000)">
                <g id="Group" transform="translate(0.000000, 118.000000)">
                    <path d="M7.68518272,41.5617241 C4.66126246,40.6770115 2.23229236,39.5303448 0.398272425,38.1217241 L3.61395349,30.9451724 C5.36930233,32.2401149 7.45408638,33.278046 9.87322259,34.063908 C12.2923588,34.8497701 14.711495,35.2402299 17.1306312,35.2402299 C19.8201993,35.2402299 21.8115615,34.8398851 23.0998007,34.0342529 C24.3880399,33.2286207 25.0321595,32.1610345 25.0321595,30.8265517 C25.0321595,29.847931 24.6535548,29.0324138 23.8914286,28.3849425 C23.1293023,27.7374713 22.1557475,27.2185057 20.9658472,26.828046 C19.7759468,26.4375862 18.1681063,26.0026437 16.1374086,25.5331034 C13.0151495,24.7867816 10.4632558,24.0454023 8.47189369,23.2990805 C6.4854485,22.5527586 4.77435216,21.3566667 3.35335548,19.7108046 C1.92744186,18.0649425 1.21940199,15.8704598 1.21940199,13.1224138 C1.21940199,10.7302299 1.86352159,8.5654023 3.1517608,6.62298851 C4.44,4.68057471 6.37727575,3.14344828 8.97342193,2.00666667 C11.5695681,0.869885057 14.7360797,0.301494253 18.4827907,0.301494253 C21.0936877,0.301494253 23.6504983,0.612873563 26.1483056,1.24057471 C28.646113,1.86827586 30.8292359,2.76781609 32.7025914,3.94413793 L29.77701,11.18 C25.9909635,9.02505747 22.2098339,7.94758621 18.4237874,7.94758621 C15.7686379,7.94758621 13.8116944,8.37758621 12.5431229,9.24252874 C11.2745515,10.1074713 10.6402658,11.2393103 10.6402658,12.6528736 C10.6402658,14.0664368 11.3728904,15.1142529 12.8332226,15.8012644 C14.2984718,16.4882759 16.5307641,17.1654023 19.5350166,17.8326437 C22.6572757,18.5789655 25.2091694,19.3252874 27.2005316,20.0666667 C29.1918937,20.8129885 30.8980731,21.9893103 32.3190698,23.5956322 C33.7449834,25.201954 34.4530233,27.3816092 34.4530233,30.1247126 C34.4530233,32.4773563 33.7990698,34.6224138 32.4911628,36.5648276 C31.1832558,38.5072414 29.2263123,40.0443678 26.6104983,41.1811494 C23.9946844,42.317931 20.8183389,42.8863218 17.0716279,42.8863218 C13.8362791,42.8863218 10.704186,42.4464368 7.68518272,41.5617241 Z" id="Path"></path>
                    <path d="M50.6887708,38.0031034 C47.4288372,34.7509195 45.8013289,30.1 45.8013289,24.0651724 L45.8013289,1.00827586 L55.281196,1.00827586 L55.281196,23.7093103 C55.281196,31.0835632 58.3247841,34.7657471 64.4070432,34.7657471 C67.3719601,34.7657471 69.6337542,33.876092 71.1924252,32.0868966 C72.7510963,30.3026437 73.5328904,27.5101149 73.5328904,23.7043678 L73.5328904,1.00333333 L82.8947508,1.00333333 L82.8947508,24.0602299 C82.8947508,30.1 81.2672425,34.745977 78.007309,37.9981609 C74.7473754,41.2552874 70.1942857,42.8813905 64.3431229,42.8813905 C58.501794,42.8863218 53.9437874,41.2602299 50.6887708,38.0031034 Z" id="Path"></path>
                    <polygon id="Path" points="105.252093 8.77298851 92.1435216 8.77298851 92.1435216 1.00827586 127.835615 1.00827586 127.835615 8.77298851 114.727043 8.77298851 114.727043 42.1795402 105.247176 42.1795402 105.247176 8.77298851"></polygon>
                    <polygon id="Path" points="138.136611 1.00827586 147.616478 1.00827586 147.616478 42.1795402 138.136611 42.1795402 138.136611 1.00827586"></polygon>
                </g>
                <g id="Group" transform="translate(0.000000, 172.000000)">
                    <path d="M0.33442623,1.15074074 L4.18032787,1.15074074 C5.1442623,1.15074074 6,1.33851852 6.74754098,1.71407407 C7.49508197,2.08962963 8.07540984,2.61444444 8.48852459,3.28851852 C8.90163934,3.96740741 9.10819672,4.74259259 9.10819672,5.61888889 C9.10819672,6.49518519 8.90163934,7.27037037 8.48852459,7.94925926 C8.07540984,8.62814815 7.49508197,9.15296296 6.74754098,9.5237037 C6,9.89925926 5.1442623,10.087037 4.18032787,10.087037 L0.33442623,10.087037 L0.33442623,1.15074074 Z M4.10163934,8.97481481 C4.83934426,8.97481481 5.48852459,8.83518519 6.04918033,8.55592593 C6.60983607,8.27666667 7.04262295,7.88185185 7.34754098,7.3762963 C7.65245902,6.87074074 7.80491803,6.28333333 7.80491803,5.6237037 C7.80491803,4.96407407 7.65245902,4.37666667 7.34754098,3.87111111 C7.04262295,3.36555556 6.60983607,2.97074074 6.04918033,2.69148148 C5.48852459,2.41222222 4.83934426,2.27259259 4.10163934,2.27259259 L1.63770492,2.27259259 L1.63770492,8.98444444 L4.10163934,8.98444444 L4.10163934,8.97481481 Z" id="Shape"></path>
                    <path d="M17.1344262,7.11148148 L11.5278689,7.11148148 C11.6065574,7.70851852 11.8721311,8.18518519 12.3295082,8.5462963 C12.7868852,8.90740741 13.352459,9.09037037 14.0311475,9.09037037 C14.857377,9.09037037 15.5213115,8.81592593 16.0229508,8.27185185 L16.7163934,9.06148148 C16.4016393,9.41777778 16.0131148,9.69222222 15.5508197,9.88 C15.0885246,10.0677778 14.5672131,10.1592593 13.9918033,10.1592593 C13.2639344,10.1592593 12.6147541,10.0148148 12.0491803,9.72111111 C11.4836066,9.42740741 11.0459016,9.01814815 10.7409836,8.48851852 C10.4311475,7.9637037 10.2786885,7.36666667 10.2786885,6.70222222 C10.2786885,6.04740741 10.4262295,5.45518519 10.7262295,4.93037037 C11.0262295,4.40555556 11.4393443,3.99148148 11.9655738,3.69777778 C12.4918033,3.40407407 13.0819672,3.25481481 13.7459016,3.25481481 C14.404918,3.25481481 14.995082,3.40407407 15.5114754,3.69777778 C16.0278689,3.99148148 16.4311475,4.40074074 16.7213115,4.93037037 C17.0114754,5.46 17.1590164,6.06185185 17.1590164,6.74074074 C17.1590164,6.83222222 17.1540984,6.95740741 17.1344262,7.11148148 Z M12.2409836,4.82444444 C11.8377049,5.18074074 11.6016393,5.64777778 11.5327869,6.23037037 L15.9639344,6.23037037 C15.895082,5.66222222 15.6590164,5.19518519 15.2557377,4.83407407 C14.852459,4.47296296 14.3508197,4.29 13.7508197,4.29 C13.1508197,4.29 12.6442623,4.46814815 12.2409836,4.82444444 Z" id="Shape"></path>
                    <path d="M18.9147541,1.79111111 C18.752459,1.63703704 18.6737705,1.44925926 18.6737705,1.22777778 C18.6737705,1.0062963 18.752459,0.818518519 18.9147541,0.65962963 C19.0770492,0.500740741 19.2786885,0.423703704 19.5196721,0.423703704 C19.7606557,0.423703704 19.9672131,0.500740741 20.1245902,0.645185185 C20.2868852,0.794444444 20.3655738,0.977407407 20.3655738,1.19888889 C20.3655738,1.43 20.2868852,1.62259259 20.1245902,1.78148148 C19.9622951,1.94037037 19.7606557,2.01740741 19.5196721,2.01740741 C19.2737705,2.01740741 19.0721311,1.94037037 18.9147541,1.79111111 Z M18.895082,3.32222222 L20.1442623,3.32222222 L20.1442623,10.0822222 L18.895082,10.0822222 L18.895082,3.32222222 Z" id="Shape"></path>
                    <path d="M28.3081967,4.00111111 C28.8245902,4.49703704 29.0852459,5.22888889 29.0852459,6.18703704 L29.0852459,10.0774074 L27.8360656,10.0774074 L27.8360656,6.32666667 C27.8360656,5.67185185 27.6737705,5.18074074 27.3540984,4.84851852 C27.0344262,4.5162963 26.5721311,4.35259259 25.9721311,4.35259259 C25.2934426,4.35259259 24.7622951,4.54518519 24.3688525,4.93518519 C23.9754098,5.32518519 23.7836066,5.87888889 23.7836066,6.60111111 L23.7836066,10.0822222 L22.5344262,10.0822222 L22.5344262,3.32222222 L23.7344262,3.32222222 L23.7344262,4.34296296 C23.9852459,3.9962963 24.3295082,3.72666667 24.757377,3.53888889 C25.1852459,3.35111111 25.6770492,3.25956149 26.2229508,3.25956149 C27.0934426,3.25481481 27.7918033,3.50518519 28.3081967,4.00111111 Z" id="Path"></path>
                    <path d="M35.7639344,9.87037037 C35.1245902,9.66333333 34.6229508,9.3937037 34.2590164,9.06148148 L34.7409836,8.06481481 C35.0901639,8.37296296 35.5327869,8.61851852 36.0786885,8.81111111 C36.6196721,9.0037037 37.1803279,9.1 37.7557377,9.1 C38.5131148,9.1 39.0737705,8.97481481 39.447541,8.72444444 C39.8213115,8.47407407 40.0081967,8.14185185 40.0081967,7.72296296 C40.0081967,7.41481481 39.904918,7.16925926 39.7032787,6.97666667 C39.5016393,6.78407407 39.2459016,6.63962963 38.9459016,6.5337037 C38.6459016,6.43259259 38.2229508,6.31703704 37.6770492,6.19185185 C36.9934426,6.02814815 36.4377049,5.86925926 36.0147541,5.70555556 C35.5918033,5.54185185 35.2327869,5.2962963 34.9327869,4.95925926 C34.6327869,4.62222222 34.4852459,4.16962963 34.4852459,3.60148148 C34.4852459,3.12481481 34.6131148,2.6962963 34.8688525,2.31111111 C35.1245902,1.93074074 35.5131148,1.62259259 36.0344262,1.39148148 C36.5557377,1.16037037 37.204918,1.04481481 37.9770492,1.04481481 C38.5131148,1.04481481 39.0442623,1.11222222 39.5655738,1.24703704 C40.0868852,1.38185185 40.5344262,1.57925926 40.9081967,1.83444444 L40.4803279,2.85518519 C40.0967213,2.61925926 39.6885246,2.4362963 39.2557377,2.31111111 C38.8229508,2.18592593 38.395082,2.12814815 37.9770492,2.12814815 C37.2393443,2.12814815 36.6836066,2.25814815 36.3147541,2.52296296 C35.9459016,2.78777778 35.7590164,3.12481481 35.7590164,3.5437037 C35.7590164,3.85185185 35.8622951,4.09740741 36.0737705,4.29 C36.2852459,4.48259259 36.5409836,4.63185185 36.8508197,4.73777778 C37.1606557,4.8437037 37.5786885,4.95925926 38.1098361,5.07481481 C38.7983607,5.23851852 39.3491803,5.39740741 39.7672131,5.56111111 C40.1852459,5.72481481 40.5442623,5.97037037 40.8442623,6.30259259 C41.1442623,6.63481481 41.2967213,7.08259259 41.2967213,7.64111111 C41.2967213,8.10814815 41.1639344,8.53666667 40.9081967,8.92185185 C40.647541,9.30703704 40.2540984,9.61518519 39.7229508,9.84148148 C39.1918033,10.0677778 38.542623,10.1785185 37.7704918,10.1785185 C37.0672131,10.1833333 36.4032787,10.0822222 35.7639344,9.87037037 Z" id="Path"></path>
                    <path d="M49.4409836,3.32222222 L49.4409836,10.0822222 L48.2557377,10.0822222 L48.2557377,9.06148148 C48.004918,9.40814815 47.6704918,9.68259259 47.257377,9.87037037 C46.8442623,10.062963 46.3967213,10.1592593 45.9098361,10.1592593 C44.9901639,10.1592593 44.2622951,9.90888889 43.7311475,9.41296296 C43.2,8.91703704 42.9344262,8.18037037 42.9344262,7.21259259 L42.9344262,3.32222222 L44.1836066,3.32222222 L44.1836066,7.07296296 C44.1836066,7.72777778 44.3459016,8.2237037 44.6655738,8.56074074 C44.9852459,8.89777778 45.447541,9.0662963 46.047541,9.0662963 C46.7065574,9.0662963 47.2278689,8.86888889 47.6114754,8.47888889 C47.995082,8.08888889 48.1868852,7.53518519 48.1868852,6.81777778 L48.1868852,3.32222222 L49.4409836,3.32222222 L49.4409836,3.32222222 Z" id="Path"></path>
                    <path d="M57.2901639,3.68814815 C57.8213115,3.97703704 58.2344262,4.38148148 58.5344262,4.90148148 C58.8344262,5.42148148 58.9819672,6.01851852 58.9819672,6.70222222 C58.9819672,7.38111111 58.8344262,7.98296296 58.5344262,8.50777778 C58.2344262,9.03259259 57.8213115,9.43703704 57.2901639,9.72592593 C56.7590164,10.0148148 56.1590164,10.1592593 55.4901639,10.1592593 C54.9934426,10.1592593 54.5409836,10.0677778 54.1278689,9.88 C53.7147541,9.69222222 53.3655738,9.42259259 53.0803279,9.06148148 L53.0803279,12.557037 L51.8311475,12.557037 L51.8311475,3.32222222 L53.0311475,3.32222222 L53.0311475,4.39592593 C53.3065574,4.02037037 53.6606557,3.7362963 54.0885246,3.54851852 C54.5163934,3.36074074 54.9836066,3.25962963 55.495082,3.25962963 C56.1590164,3.25481481 56.7590164,3.39925926 57.2901639,3.68814815 Z M56.5770492,8.78703704 C56.9311475,8.58481481 57.2065574,8.30555556 57.4131148,7.94444444 C57.6196721,7.58333333 57.7180328,7.16925926 57.7180328,6.70222222 C57.7180328,6.23518519 57.6147541,5.82111111 57.4131148,5.46 C57.2065574,5.09888889 56.9311475,4.81962963 56.5770492,4.62222222 C56.2278689,4.42481481 55.8295082,4.32851852 55.3868852,4.32851852 C54.9540984,4.32851852 54.5606557,4.42962963 54.2065574,4.62703704 C53.852459,4.82925926 53.5770492,5.1037037 53.3704918,5.46481481 C53.1639344,5.82592593 53.0655738,6.23518519 53.0655738,6.70222222 C53.0655738,7.16925926 53.1639344,7.58333333 53.3655738,7.94444444 C53.5672131,8.30555556 53.842623,8.58481481 54.2016393,8.78703704 C54.5606557,8.98925926 54.9540984,9.08555556 55.3868852,9.08555556 C55.8295082,9.08555556 56.2229508,8.98925926 56.5770492,8.78703704 Z" id="Shape"></path>
                    <path d="M66.9295082,7.11148148 L61.3278689,7.11148148 C61.4065574,7.70851852 61.6721311,8.18518519 62.1295082,8.5462963 C62.5868852,8.90740741 63.152459,9.09037037 63.8311475,9.09037037 C64.657377,9.09037037 65.3213115,8.81592593 65.8229508,8.27185185 L66.5114754,9.06148148 C66.1967213,9.41777778 65.8081967,9.69222222 65.3459016,9.88 C64.8836066,10.0677778 64.3622951,10.1592593 63.7868852,10.1592593 C63.0590164,10.1592593 62.4098361,10.0148148 61.8442623,9.72111111 C61.2786885,9.42740741 60.8409836,9.01814815 60.5360656,8.48851852 C60.2262295,7.9637037 60.0737705,7.36666667 60.0737705,6.70222222 C60.0737705,6.04740741 60.2213115,5.45518519 60.5213115,4.93037037 C60.8213115,4.40555556 61.2344262,3.99148148 61.7606557,3.69777778 C62.2868852,3.40407407 62.8819672,3.25481481 63.5409836,3.25481481 C64.2,3.25481481 64.7901639,3.40407407 65.3065574,3.69777778 C65.8229508,3.99148148 66.2262295,4.40074074 66.5163934,4.93037037 C66.8065574,5.46 66.9540984,6.06185185 66.9540984,6.74074074 C66.9590164,6.83222222 66.9491803,6.95740741 66.9295082,7.11148148 Z M62.0360656,4.82444444 C61.6327869,5.18074074 61.3967213,5.64777778 61.3278689,6.23037037 L65.7590164,6.23037037 C65.6901639,5.66222222 65.4540984,5.19518519 65.0459016,4.83407407 C64.642623,4.47296296 64.1409836,4.29 63.5409836,4.29 C62.9409836,4.29 62.4442623,4.46814815 62.0360656,4.82444444 Z" id="Shape"></path>
                    <path d="M70.8540984,3.56296296 C71.2819672,3.36074074 71.7983607,3.25481481 72.4032787,3.25481481 L72.4032787,4.43925926 C72.3344262,4.42962963 72.2360656,4.42481481 72.1180328,4.42481481 C71.4393443,4.42481481 70.9081967,4.62222222 70.5196721,5.01703704 C70.1311475,5.41185185 69.9393443,5.97518519 69.9393443,6.70703704 L69.9393443,10.0774074 L68.6901639,10.0774074 L68.6901639,3.32222222 L69.8901639,3.32222222 L69.8901639,4.45851852 C70.1065574,4.0637037 70.4262295,3.76518519 70.8540984,3.56296296 Z" id="Path"></path>
                    <path d="M84.6491803,3.9962963 C85.1557377,4.49222222 85.4114754,5.21925926 85.4114754,6.19185185 L85.4114754,10.0822222 L84.1622951,10.0822222 L84.1622951,6.33148148 C84.1622951,5.67666667 84.0098361,5.18555556 83.7,4.85333333 C83.3901639,4.52111111 82.947541,4.35740741 82.3770492,4.35740741 C81.742623,4.35740741 81.2409836,4.55 80.8672131,4.94 C80.4934426,5.32518519 80.3065574,5.8837037 80.3065574,6.60592593 L80.3065574,10.087037 L79.057377,10.087037 L79.057377,6.3362963 C79.057377,5.68148148 78.904918,5.19037037 78.595082,4.85814815 C78.2852459,4.52592593 77.847541,4.36222222 77.2721311,4.36222222 C76.6377049,4.36222222 76.1360656,4.55481481 75.7622951,4.94481481 C75.3885246,5.33481481 75.2016393,5.88851852 75.2016393,6.61074074 L75.2016393,10.0918519 L73.952459,10.0918519 L73.952459,3.32222222 L75.152459,3.32222222 L75.152459,4.32851852 C75.4032787,3.98185185 75.7327869,3.71222222 76.1409836,3.52925926 C76.5491803,3.3462963 77.0163934,3.25481481 77.5377049,3.25481481 C78.0786885,3.25481481 78.5557377,3.36074074 78.9737705,3.57259259 C79.3918033,3.78444444 79.7114754,4.09740741 79.9377049,4.50185185 C80.1983607,4.11185185 80.5622951,3.8037037 81.0245902,3.58222222 C81.4868852,3.36074074 82.0131148,3.25 82.5934426,3.25 C83.4540984,3.25481481 84.142623,3.50518519 84.6491803,3.9962963 Z" id="Path"></path>
                    <path d="M92.4295082,3.94333333 C92.9360656,4.40074074 93.1918033,5.08925926 93.1918033,5.99925926 L93.1918033,10.0822222 L92.0065574,10.0822222 L92.0065574,9.19148148 C91.8,9.50444444 91.5,9.74518519 91.1163934,9.9137037 C90.7278689,10.0774074 90.2704918,10.1640741 89.7393443,10.1640741 C88.9672131,10.1640741 88.347541,9.98111111 87.8803279,9.61518519 C87.4131148,9.24925926 87.1819672,8.76777778 87.1819672,8.17555556 C87.1819672,7.58333333 87.4032787,7.10185185 87.8459016,6.74074074 C88.2885246,6.37962963 88.9918033,6.19666667 89.9557377,6.19666667 L91.9377049,6.19666667 L91.9377049,5.95592593 C91.9377049,5.43111111 91.7803279,5.02666667 91.4704918,4.74259259 C91.1606557,4.45851852 90.6983607,4.3237037 90.0885246,4.3237037 C89.6803279,4.3237037 89.2819672,4.39111111 88.8885246,4.52111111 C88.5,4.65111111 88.1655738,4.82925926 87.895082,5.05074074 L87.3737705,4.13111111 C87.7278689,3.85185185 88.1557377,3.63518519 88.652459,3.48592593 C89.1491803,3.33666667 89.6754098,3.26444444 90.2311475,3.26444444 C91.1901639,3.25481481 91.9229508,3.48592593 92.4295082,3.94333333 Z M91.1852459,8.90259259 C91.5344262,8.69555556 91.7852459,8.39703704 91.942623,8.01666667 L91.942623,7.07296296 L90.0147541,7.07296296 C88.957377,7.07296296 88.4262295,7.41962963 88.4262295,8.11777778 C88.4262295,8.45962963 88.5590164,8.72444444 88.8295082,8.92185185 C89.1,9.11925926 89.4737705,9.21555556 89.9508197,9.21555556 C90.4229508,9.21555556 90.8360656,9.10962963 91.1852459,8.90259259 Z" id="Shape"></path>
                    <path d="M97.6770492,3.56296296 C98.104918,3.36074074 98.6213115,3.25481481 99.2262295,3.25481481 L99.2262295,4.43925926 C99.157377,4.42962963 99.0590164,4.42481481 98.9409836,4.42481481 C98.2622951,4.42481481 97.7311475,4.62222222 97.342623,5.01703704 C96.9540984,5.41185185 96.7622951,5.97518519 96.7622951,6.70703704 L96.7622951,10.0774074 L95.5131148,10.0774074 L95.5131148,3.32222222 L96.7131148,3.32222222 L96.7131148,4.45851852 C96.9295082,4.0637037 97.2491803,3.76518519 97.6770492,3.56296296 Z" id="Path"></path>
                    <polygon id="Path" points="103.45082 6.93333333 102.014754 8.23333333 102.014754 10.0822222 100.765574 10.0822222 100.765574 0.616296296 102.014754 0.616296296 102.014754 6.68777778 105.781967 3.31740741 107.291803 3.31740741 104.385246 6.11 107.577049 10.0774074 106.037705 10.0774074"></polygon>
                    <path d="M112.677049,9.68740741 C112.495082,9.84148148 112.268852,9.95703704 111.998361,10.0388889 C111.727869,10.1207407 111.452459,10.1592593 111.162295,10.1592593 C110.468852,10.1592593 109.927869,9.9762963 109.544262,9.61037037 C109.160656,9.24444444 108.968852,8.71962963 108.968852,8.04074074 L108.968852,4.32851852 L107.798361,4.32851852 L107.798361,3.32222222 L108.968852,3.32222222 L108.968852,1.84407407 L110.218033,1.84407407 L110.218033,3.32222222 L112.2,3.32222222 L112.2,4.32851852 L110.218033,4.32851852 L110.218033,7.99259259 C110.218033,8.35851852 110.311475,8.63777778 110.498361,8.83518519 C110.685246,9.03259259 110.95082,9.12888889 111.3,9.12888889 C111.683607,9.12888889 112.008197,9.02296296 112.278689,8.81111111 L112.677049,9.68740741 Z" id="Path"></path>
                    <path d="M117.904918,9.68740741 C117.722951,9.84148148 117.496721,9.95703704 117.22623,10.0388889 C116.955738,10.1207407 116.680328,10.1592593 116.390164,10.1592593 C115.696721,10.1592593 115.155738,9.9762963 114.772131,9.61037037 C114.388525,9.24444444 114.196721,8.71962963 114.196721,8.04074074 L114.196721,4.32851852 L113.02623,4.32851852 L113.02623,3.32222222 L114.196721,3.32222222 L114.196721,1.84407407 L115.445902,1.84407407 L115.445902,3.32222222 L117.427869,3.32222222 L117.427869,4.32851852 L115.445902,4.32851852 L115.445902,7.99259259 C115.445902,8.35851852 115.539344,8.63777778 115.72623,8.83518519 C115.913115,9.03259259 116.178689,9.12888889 116.527869,9.12888889 C116.911475,9.12888889 117.236066,9.02296296 117.506557,8.81111111 L117.904918,9.68740741 Z" id="Path"></path>
                    <path d="M119.434426,1.79111111 C119.272131,1.63703704 119.193443,1.44925926 119.193443,1.22777778 C119.193443,1.0062963 119.272131,0.818518519 119.434426,0.65962963 C119.596721,0.500740741 119.798361,0.423703704 120.039344,0.423703704 C120.280328,0.423703704 120.481967,0.500740741 120.644262,0.645185185 C120.806557,0.794444444 120.885246,0.977407407 120.885246,1.19888889 C120.885246,1.43 120.806557,1.62259259 120.644262,1.78148148 C120.481967,1.94037037 120.280328,2.01740741 120.039344,2.01740741 C119.793443,2.01740741 119.591803,1.94037037 119.434426,1.79111111 Z M119.414754,3.32222222 L120.663934,3.32222222 L120.663934,10.0822222 L119.414754,10.0822222 L119.414754,3.32222222 Z" id="Shape"></path>
                    <path d="M124.17541,9.71148148 C123.62459,9.41296296 123.191803,9.0037037 122.877049,8.47888889 C122.562295,7.95407407 122.404918,7.36185185 122.404918,6.69740741 C122.404918,6.03296296 122.562295,5.44074074 122.877049,4.91592593 C123.186885,4.39111111 123.619672,3.98666667 124.17541,3.69296296 C124.72623,3.39925926 125.355738,3.25 126.059016,3.25 C126.683607,3.25 127.244262,3.37518519 127.736066,3.62074074 C128.227869,3.8662963 128.606557,4.22259259 128.877049,4.69444444 L127.922951,5.2962963 C127.706557,4.9737037 127.436066,4.73296296 127.116393,4.56925926 C126.796721,4.41037037 126.437705,4.32851852 126.04918,4.32851852 C125.596721,4.32851852 125.188525,4.42481481 124.829508,4.62222222 C124.470492,4.81962963 124.185246,5.09888889 123.983607,5.46 C123.777049,5.82111111 123.678689,6.23518519 123.678689,6.70222222 C123.678689,7.17888889 123.781967,7.59777778 123.983607,7.95888889 C124.185246,8.32 124.470492,8.59925926 124.829508,8.79666667 C125.188525,8.99407407 125.596721,9.09037037 126.04918,9.09037037 C126.437705,9.09037037 126.796721,9.00851852 127.116393,8.84962963 C127.436066,8.69074074 127.706557,8.44518519 127.922951,8.12259259 L128.877049,8.71 C128.606557,9.17703704 128.227869,9.53814815 127.736066,9.78851852 C127.244262,10.0388889 126.688525,10.1640741 126.059016,10.1640741 C125.355738,10.1592593 124.731148,10.01 124.17541,9.71148148 Z" id="Path"></path>
                    <polygon id="Path" points="133.086885 6.93333333 131.65082 8.23333333 131.65082 10.0822222 130.401639 10.0822222 130.401639 0.616296296 131.65082 0.616296296 131.65082 6.68777778 135.418033 3.31740741 136.927869 3.31740741 134.021311 6.11 137.213115 10.0774074 135.67377 10.0774074"></polygon>
                    <path d="M144.359016,7.11148148 L138.757377,7.11148148 C138.836066,7.70851852 139.101639,8.18518519 139.559016,8.5462963 C140.016393,8.90740741 140.581967,9.09037037 141.260656,9.09037037 C142.086885,9.09037037 142.75082,8.81592593 143.252459,8.27185185 L143.940984,9.06148148 C143.631148,9.41777778 143.237705,9.69222222 142.77541,9.88 C142.313115,10.0677778 141.791803,10.1592593 141.216393,10.1592593 C140.488525,10.1592593 139.839344,10.0148148 139.27377,9.72111111 C138.708197,9.42740741 138.270492,9.01814815 137.965574,8.48851852 C137.655738,7.9637037 137.503279,7.36666667 137.503279,6.70222222 C137.503279,6.04740741 137.65082,5.45518519 137.95082,4.93037037 C138.25082,4.40555556 138.663934,3.99148148 139.190164,3.69777778 C139.716393,3.40407407 140.306557,3.25481481 140.970492,3.25481481 C141.629508,3.25481481 142.219672,3.40407407 142.736066,3.69777778 C143.252459,3.99148148 143.655738,4.40074074 143.945902,4.93037037 C144.236066,5.46 144.383607,6.06185185 144.383607,6.74074074 C144.383607,6.83222222 144.378689,6.95740741 144.359016,7.11148148 Z M139.465574,4.82444444 C139.062295,5.18074074 138.82623,5.64777778 138.752459,6.23037037 L143.183607,6.23037037 C143.114754,5.66222222 142.878689,5.19518519 142.47541,4.83407407 C142.072131,4.47296296 141.570492,4.29 140.970492,4.29 C140.370492,4.29 139.868852,4.46814815 139.465574,4.82444444 Z" id="Shape"></path>
                    <path d="M150,9.68740741 C149.818033,9.84148148 149.591803,9.95703704 149.321311,10.0388889 C149.05082,10.1207407 148.77541,10.1592593 148.485246,10.1592593 C147.791803,10.1592593 147.25082,9.9762963 146.867213,9.61037037 C146.483607,9.24444444 146.291803,8.71962963 146.291803,8.04074074 L146.291803,4.32851852 L145.121311,4.32851852 L145.121311,3.32222222 L146.291803,3.32222222 L146.291803,1.84407407 L147.540984,1.84407407 L147.540984,3.32222222 L149.522951,3.32222222 L149.522951,4.32851852 L147.540984,4.32851852 L147.540984,7.99259259 C147.540984,8.35851852 147.634426,8.63777778 147.821311,8.83518519 C148.008197,9.03259259 148.27377,9.12888889 148.622951,9.12888889 C149.006557,9.12888889 149.331148,9.02296296 149.601639,8.81111111 L150,9.68740741 Z" id="Path"></path>
                </g>
                <g id="Group" transform="translate(23.000000, 0.000000)">
                    <path d="M88.3280769,76.5283019 L36.7003846,76.5283019 C29.8791346,76.5283019 24.0975,72.2358491 21.9888462,66.069434 L100.881923,66.069434 L100.881923,50.410566 L97.9935577,50.410566 C92.6630769,50.410566 88.3231731,46.0690566 88.3231731,40.7366038 C88.3231731,35.4041509 92.6581731,31.0626415 97.9935577,31.0626415 L100.881923,31.0626415 L100.881923,15.4086792 L17.1340385,15.4086792 L16.5259615,8.40830189 C16.12875,3.82641509 12.3625962,0.367924528 7.76278846,0.367924528 L0.451153846,0.367924528 L0.451153846,6.15169811 L7.76278846,6.15169811 C9.34182692,6.15169811 10.6315385,7.33886792 10.7688462,8.90867925 L15.4324038,62.7728302 C15.8884615,68.1150943 18.3109615,73.06 22.2634615,76.685283 C23.3570192,77.6909434 24.54375,78.5641509 25.7991346,79.3098113 C22.5527885,81.7920755 20.4490385,85.7018868 20.4490385,90.0973585 C20.4490385,97.5833962 26.5347115,103.671321 34.0179808,103.671321 C41.50125,103.671321 47.5869231,97.5833962 47.5869231,90.0973585 C47.5869231,87.1981132 46.6699038,84.514717 45.1202885,82.3071698 L77.2306731,82.3071698 C75.6810577,84.514717 74.7640385,87.1981132 74.7640385,90.0973585 C74.7640385,97.5833962 80.8497115,103.671321 88.3329808,103.671321 C95.81625,103.671321 101.901923,97.5833962 101.901923,90.0973585 C101.897019,82.6211321 95.8113462,76.5283019 88.3280769,76.5283019 Z M63.5734615,21.1924528 C63.55875,21.334717 63.5489423,21.4769811 63.5489423,21.6241509 C63.5489423,23.7826415 65.2947115,25.5290566 67.4524038,25.5290566 C69.6100962,25.5290566 71.3558654,23.7826415 71.3558654,21.6241509 C71.3558654,21.4769811 71.3460577,21.334717 71.3313462,21.1924528 L95.1002885,21.1924528 L95.1002885,25.5535849 C87.9553846,26.9124528 82.5415385,33.2015094 82.5415385,40.7366038 C82.5415385,48.2716981 87.9602885,54.5656604 95.1002885,55.9196226 L95.1002885,60.2807547 L71.3411538,60.2807547 C71.3460577,60.2022642 71.3509615,60.1188679 71.3509615,60.0403774 C71.3509615,57.8818868 69.6051923,56.1354717 67.4475,56.1354717 C65.2898077,56.1354717 63.5440385,57.8818868 63.5440385,60.0403774 C63.5440385,60.1237736 63.5538462,60.2022642 63.5538462,60.2807547 L21.0129808,60.2807547 L17.6293269,21.1826415 L63.5734615,21.1826415 L63.5734615,21.1924528 Z M34.0130769,97.8924528 C29.7173077,97.8924528 26.2257692,94.3996226 26.2257692,90.1022642 C26.2257692,85.8049057 29.7173077,82.3120755 34.0130769,82.3120755 C38.3088462,82.3120755 41.8003846,85.8049057 41.8003846,90.1022642 C41.8003846,94.3996226 38.3088462,97.8924528 34.0130769,97.8924528 Z M88.3280769,97.8924528 C84.0323077,97.8924528 80.5407692,94.3996226 80.5407692,90.1022642 C80.5407692,85.8049057 84.0323077,82.3120755 88.3280769,82.3120755 C92.6238462,82.3120755 96.1153846,85.8098113 96.1153846,90.1022642 C96.1153846,94.394717 92.6238462,97.8924528 88.3280769,97.8924528 Z" id="Shape"></path>
                    <ellipse id="Oval" cx="67.4524038" cy="47.2366038" rx="3.90346154" ry="3.90490566"></ellipse>
                    <ellipse id="Oval" cx="67.4524038" cy="34.4279245" rx="3.90346154" ry="3.90490566"></ellipse>
                </g>
            </g>
        </g>
    </g>
</svg>
